<svg width="500" height="500" viewBox="0 0 500 500" fill="none" xmlns="http://www.w3.org/2000/svg">
<g clip-path="url(#clip0_1963_111)">
<path d="M431.46 305.095H315.44V235.345C315.44 218.785 328.88 205.345 345.44 205.345H451.46V285.095C451.46 296.135 442.5 305.095 431.46 305.095Z" fill="#4B5CEF"/>
<path d="M259.58 160.605L54.7401 160.605V100.855C54.7401 78.775 72.6601 60.855 94.7401 60.855L299.58 60.855V120.605C299.58 142.685 281.66 160.605 259.58 160.605Z" fill="#A0BBCD"/>
<path d="M412.06 439.145H247.22C225.14 439.145 207.22 421.225 207.22 399.145V339.395H452.06V399.145C452.06 421.225 434.14 439.145 412.06 439.145Z" fill="#4B5CEF"/>
<path d="M153.96 296.025H47.94V226.275C47.94 209.715 61.38 196.275 77.94 196.275H183.96V266.025C183.96 282.585 170.52 296.025 153.96 296.025Z" fill="#A0BBCD"/>
</g>
<defs>
<clipPath id="clip0_1963_111">
<rect width="404.12" height="378.29" fill="white" transform="translate(47.9399 60.855)"/>
</clipPath>
</defs>
</svg>
