<svg width="500" height="500" viewBox="0 0 500 500" fill="none" xmlns="http://www.w3.org/2000/svg">
<mask id="mask0_5091_10" style="mask-type:luminance" maskUnits="userSpaceOnUse" x="47" y="60" width="406" height="380">
<path d="M452.06 60.855H47.9399V439.145H452.06V60.855Z" fill="white"/>
</mask>
<g mask="url(#mask0_5091_10)">
<path d="M431.46 305.095H315.44V235.345C315.44 218.785 328.88 205.345 345.44 205.345H451.46V285.095C451.46 296.135 442.5 305.095 431.46 305.095Z" fill="#0662FF"/>
<path d="M259.58 160.605H54.74V100.855C54.74 78.775 72.66 60.855 94.74 60.855H299.58V120.605C299.58 142.685 281.66 160.605 259.58 160.605Z" fill="#8599A9"/>
<path d="M412.06 439.145H247.22C225.14 439.145 207.22 421.225 207.22 399.145V339.395H452.06V399.145C452.06 421.225 434.14 439.145 412.06 439.145Z" fill="#0662FF"/>
<path d="M153.96 296.025H47.9399V226.275C47.9399 209.715 61.3799 196.275 77.9399 196.275H183.96V266.025C183.96 282.585 170.52 296.025 153.96 296.025Z" fill="#8599A9"/>
</g>
</svg>
